{
	"asset":{
		"version":"2.0",
		"generator":"Created using the official Cinema 4D glTF Exporter 1.000x284978"
	},
	"scenes":[{
		"nodes":[0]
	}],
	"nodes":[{
		"name":"5F",
		"translation":[-941.6347045898438,
		2938.970458984375,
		-2362.201171875],
		"rotation":[0.0,
		0.0,
		0.0,
		-1.0],
		"scale":[1.0,
		1.0,
		1.0],
		"children":[1]
	},
	{
		"name":"Tg结构_矩形柱 Z6_混凝土-700 x 600 mm [435069]",
		"translation":[-640.4110717773438,
		-1779.1751708984376,
		217.46200561523438],
		"rotation":[0.0,
		0.0,
		0.0,
		-1.0],
		"scale":[1.0,
		1.0,
		1.0],
		"mesh":0
	}],
	"meshes":[{
		"name":"Tg结构_矩形柱 Z6_混凝土-700 x 600 mm [435069]",
		"primitives":[{
			"attributes":{
				"POSITION":1,
				"TEXCOORD_0":2
			},
			"indices":0,
			"material":0
		}]
	}],
	"accessors":[{
		"bufferView":0,
		"type":"SCALAR",
		"componentType":5123,
		"count":61749,
		"byteOffset":0,
		"min":[0],
		"max":[41122]
	},
	{
		"bufferView":1,
		"type":"VEC3",
		"componentType":5126,
		"count":41123,
		"byteOffset":0,
		"min":[-2727.810302734375,
		1799.8404541015626,
		-1418.2913818359376],
		"max":[5822.189453125,
		2220.079833984375,
		711.7086791992188]
	},
	{
		"bufferView":1,
		"type":"VEC2",
		"componentType":5126,
		"count":41123,
		"byteOffset":12,
		"min":[0.003302931319922209,
		0.0033162375912070276],
		"max":[0.9966970682144165,
		0.9966837167739868]
	}],
	"bufferViews":[{
		"buffer":0,
		"byteOffset":0,
		"byteLength":123498,
		"target":34963
	},
	{
		"buffer":0,
		"byteOffset":123500,
		"byteLength":822460,
		"target":34962,
		"byteStride":20
	}],
	"buffers":[{
		"uri":"data:application/octet-stream;base64,",
		"byteLength":945960
	}],
	"images":[{
		"uri":"data:image/jpeg;base64,"
	}],
	"samplers":[{
		"magFilter":9729,
		"minFilter":9729,
		"wrapS":10497,
		"wrapT":10497
	}],
	"textures":[{
		"sampler":0,
		"source":0
	}],
	"materials":[{
		"pbrMetallicRoughness":{
			"baseColorTexture":{
				"index":0
			},
			"baseColorFactor":[1.0,
			1.0,
			1.0,
			1.0],
			"metallicFactor":0.0,
			"roughnessFactor":0.5
		},
		"emissiveFactor":[0.0,
		0.0,
		0.0],
		"alphaMode":"OPAQUE",
		"doubleSided":false,
		"name":"材质"
	}]
}