{
	"nodes":[{
		"name":"立方体",
		"mesh":0
	}],
	"asset":{
		"version":"2.0",
		"generator":"Created using the official Cinema 4D glTF Exporter 1.000x284978"
	},
	"scenes":[{
		"nodes":[0]
	}],
	"meshes":[{
		"name":"立方体",
		"primitives":[{
			"attributes":{
				"POSITION":1,
				"NORMAL":2,
				"TEXCOORD_0":3
			},
			"indices":0,
			"material":0
		}]
	}],
	"accessors":[{
		"bufferView":0,
		"type":"SCALAR",
		"componentType":5123,
		"count":2292,
		"byteOffset":0,
		"min":[0],
		"max":[451]
	},
	{
		"bufferView":1,
		"type":"VEC3",
		"componentType":5126,
		"count":452,
		"byteOffset":0,
		"min":[-100.0,
		-100.0,
		-100.0],
		"max":[100.0,
		100.0,
		100.0]
	},
	{
		"bufferView":1,
		"type":"VEC3",
		"componentType":5126,
		"count":452,
		"byteOffset":12,
		"min":[-0.9966209530830383,
		-0.9966558218002319,
		-0.9966558218002319],
		"max":[0.9966558218002319,
		0.9966558218002319,
		0.9966558218002319]
	},
	{
		"bufferView":1,
		"type":"VEC2",
		"componentType":5126,
		"count":452,
		"byteOffset":24,
		"min":[-0.042500000447034839,
		-0.04249999672174454],
		"max":[1.0425000190734864,
		1.0425000190734864]
	}],
	"bufferViews":[{
		"buffer":0,
		"byteOffset":0,
		"byteLength":4584,
		"target":34963
	},
	{
		"buffer":0,
		"byteOffset":4584,
		"byteLength":14464,
		"byteStride":32,
		"target":34962
	}],
	"buffers":[{
		"uri":"data:application/octet-stream;base64,",
		"byteLength":19048
	}],
	"materials":[{
		"pbrMetallicRoughness":{
			"baseColorFactor":[0.0,
			0.0,
			0.0,
			1.0],
			"metallicFactor":0.0,
			"roughnessFactor":0.0
		},
		"emissiveFactor":[0.0,
		0.0,
		0.0],
		"alphaMode":"OPAQUE",
		"doubleSided":true,
		"name":"材质"
	}]
}